<svg id="Layer_1" data-name="Layer 1" xmlns="http://www.w3.org/2000/svg" viewBox="0 0 664.05 201.21"><defs><style>.cls-1{fill:#fff;}</style></defs><title>Payfast Logo White</title><path class="cls-1" d="M720.45,110.59a65.43,65.43,0,0,1-12.36,5.8A58.82,58.82,0,0,1,693.47,120c-2.13.35-4.29.65-6.51.87h-.07c-20.49,1.76-38-2.65-48-12.07a3,3,0,0,1-.26-.24c0,.36,0,.73,0,1.13A17.38,17.38,0,0,0,643,121.1c8.12,9.32,23.74,14.4,41.9,14.69,12.1.08,23.13-2.2,31.59-6.26a33.57,33.57,0,0,0,10.56-7.7,17.45,17.45,0,0,0,4.6-11.32,16.51,16.51,0,0,0-1.85-7.57A41.6,41.6,0,0,1,720.45,110.59ZM684.74,97.71c-19.15,1.47-35.65-2.11-45.9-10.28a17.81,17.81,0,0,0,4.36,10.32c8.11,9.33,23.74,14.39,41.89,14.69,12.11.08,23.14-2.2,31.58-6.27a32.83,32.83,0,0,0,10.57-7.7,17.45,17.45,0,0,0,4.57-11.32A16.56,16.56,0,0,0,729.05,78C726.37,81.48,715.08,95.4,684.74,97.71Zm.55-8.62c12.11.07,23.14-2.19,31.57-6.28a32.83,32.83,0,0,0,10.58-7.7,16.59,16.59,0,0,0,.2-22.68C719.5,43.09,703.9,38,685.73,37.75c-12.1-.09-23.13,2.18-31.56,6.24a33.52,33.52,0,0,0-10.59,7.7A17.52,17.52,0,0,0,639,63a17.46,17.46,0,0,0,4.39,11.4C651.5,83.73,667.14,88.78,685.29,89.09ZM649.94,53.85c4.41-5.39,18.13-10.63,34.16-10.36,10.72.06,20.34,2.35,26.83,5.67a21.93,21.93,0,0,1,7.16,5.27A7,7,0,0,1,720,59a7.06,7.06,0,0,1-2,4.55c-4.39,5.39-18.12,10.64-34.17,10.36-10.72-.07-20.33-2.37-26.82-5.67A22.86,22.86,0,0,1,649.87,63a7.08,7.08,0,0,1-2-4.6A7,7,0,0,1,649.94,53.85Z" transform="translate(-67.98 -37.74)"/><path class="cls-1" d="M234.53,101.11q-6.45-7.42-18.24-7.43H180.37l-2.68,13.6H213.6a10.67,10.67,0,0,1,8.85,3.93,11.44,11.44,0,0,1,2.07,9.66L224,123.2l-.18,1.61H190.53a33.29,33.29,0,0,0-21.38,7.69A32.39,32.39,0,0,0,157.26,152l-.35,1.43q-2.52,11.79,3.84,19.5t18.15,7.68h47l12.71-60.45Q241,108.54,234.53,101.11ZM215,167H181.77a11.23,11.23,0,0,1-9-3.93c-2.21-2.62-2.89-5.85-2.06-9.66L171,152a15.83,15.83,0,0,1,6-9.66,16.71,16.71,0,0,1,10.64-3.94h33.09Zm100.3-73.34-15.21,73.16H265.8a11.18,11.18,0,0,1-9-3.94c-2.21-2.61-2.89-5.84-2.06-9.65l12.35-59.57H253.27l-12.34,59.57q-2.51,11.81,3.94,19.49t18.24,7.7h34.52l-1.07,5a17,17,0,0,1-6.17,9.57,16.3,16.3,0,0,1-10.47,4h-47L230,212.63h47a32.7,32.7,0,0,0,21.11-7.87,33.73,33.73,0,0,0,12.16-19.32l19-91.76Z" transform="translate(-67.98 -37.74)"/><path class="cls-1" d="M172,101.6a32.23,32.23,0,0,1-11.91,19.05q-9.6,7.75-20.89,7.76H92.32l-10.76,52.2H68L92.49,62.8H153q11.28,0,17.55,7.76t4,19Zm-13.58,0,2.47-12Q162.15,84,159,80.08a10.8,10.8,0,0,0-8.82-3.88H103.25L95.14,115h46.91a16.08,16.08,0,0,0,10.4-3.88A16.56,16.56,0,0,0,158.45,101.6Z" transform="translate(-67.98 -37.74)"/><path class="cls-1" d="M460,180.28l-47,.18q-11.81,0-18.18-7.63t-3.92-19.5l.35-1.44A32.41,32.41,0,0,1,403,132.33a33.3,33.3,0,0,1,21.35-7.78l33.27-.13.17-1.61.53-2.33a11.46,11.46,0,0,0-2.09-9.66,10.68,10.68,0,0,0-8.88-3.9l-38.7.14,2.62-13.62L450,93.29q11.8,0,18.27,7.37t4.19,19Zm-11-13.57L454.61,138l-33.1.13a16.65,16.65,0,0,0-10.62,4,15.93,15.93,0,0,0-6,9.69l-.35,1.44q-1.23,5.73,2.09,9.66a11.21,11.21,0,0,0,9.05,3.9Z" transform="translate(-67.98 -37.74)"/><path class="cls-1" d="M550.1,156.61a27.14,27.14,0,0,1-11.92,17.75,35.55,35.55,0,0,1-20.37,6l-46.51.18,2.81-13.61,46.51-.17q13.77-.06,15.7-10.08l.71-3.22q2.1-10-11.67-10l-20.93.08q-11.62,0-17.91-5.84-7.17-6.4-4.9-17.68l.71-3.23A27.1,27.1,0,0,1,494.25,99a35.68,35.68,0,0,1,20.37-6l46.69-.18-2.64,13.61-46.69.18q-13.77,0-15.88,10.07l-.7,3.23q-1.93,10,11.85,10l20.92-.08q11.63,0,17.92,5.83,7,6.42,4.71,17.7Z" transform="translate(-67.98 -37.74)"/><path class="cls-1" d="M613,180.34l-21.82.08q-11.81,0-18.27-7.69t-4-19.62L578.42,106l-8.59,0,3-14.07,8.59,0,6.32-31.38,13.95-.05-6.32,31.37,29-.11-3,14.07-29,.11-9.48,47.07q-1.23,5.77,2,9.73a10.89,10.89,0,0,0,9,3.93l21.82-.08Z" transform="translate(-67.98 -37.74)"/><path class="cls-1" d="M435.68,74.78l-57,.21a18,18,0,0,0-16.82,13.68l-5.22,26,35.56-.14-2.82,13.81L354,128.5l-10.79,52.15-13.82,0,18.67-92a34.76,34.76,0,0,1,33.45-27.35l57-.22Z" transform="translate(-67.98 -37.74)"/><path class="cls-1" d="M337.86,222.54H325l-2.91,7.93h-2.5l10.69-28.25h2.27l10.69,28.25h-2.49Zm-12.09-2H337.1l-5.67-15.39Z" transform="translate(-67.98 -37.74)"/><path class="cls-1" d="M356.56,230.47V202.22h8.34a13.1,13.1,0,0,1,6.64,1.67,11.35,11.35,0,0,1,4.49,4.74,15,15,0,0,1,1.59,7v1.42a14.94,14.94,0,0,1-1.6,7.06,11.19,11.19,0,0,1-4.55,4.69,13.72,13.72,0,0,1-6.78,1.65Zm4.9-24.29v20.37h3.21a7.36,7.36,0,0,0,5.92-2.41q2.07-2.41,2.11-6.94v-1.57c0-3.06-.67-5.41-2-7a7.08,7.08,0,0,0-5.8-2.43Z" transform="translate(-67.98 -37.74)"/><path class="cls-1" d="M387.42,220v10.47h-4.91V202.22h10.81a11,11,0,0,1,7.52,2.47,8.32,8.32,0,0,1,2.78,6.53,8,8,0,0,1-2.72,6.46q-2.73,2.32-7.64,2.32Zm0-4h5.9a5.82,5.82,0,0,0,4-1.23,4.57,4.57,0,0,0,1.37-3.56,4.88,4.88,0,0,0-1.39-3.66,5.45,5.45,0,0,0-3.85-1.41h-6Z" transform="translate(-67.98 -37.74)"/><path class="cls-1" d="M430.45,217.09a17.45,17.45,0,0,1-1.43,7.28,10.87,10.87,0,0,1-4.11,4.81,12,12,0,0,1-12.26,0,11,11,0,0,1-4.15-4.78,16.71,16.71,0,0,1-1.48-7.16v-1.59a17.1,17.1,0,0,1,1.46-7.29,11,11,0,0,1,4.13-4.85,12.08,12.08,0,0,1,12.24,0,10.81,10.81,0,0,1,4.13,4.77,17.07,17.07,0,0,1,1.47,7.24Zm-4.91-1.48q0-4.7-1.77-7.2a5.83,5.83,0,0,0-5-2.5,5.77,5.77,0,0,0-5,2.49,12.16,12.16,0,0,0-1.84,7.06v1.63q0,4.65,1.82,7.19a6.29,6.29,0,0,0,10.05.06q1.75-2.47,1.75-7.25Z" transform="translate(-67.98 -37.74)"/><path class="cls-1" d="M465.88,221.66a10.11,10.11,0,0,1-3.2,6.83,10.52,10.52,0,0,1-7.2,2.37,9.94,9.94,0,0,1-5.56-1.57,10.27,10.27,0,0,1-3.74-4.45,15.82,15.82,0,0,1-1.33-6.59v-3.67a16,16,0,0,1,1.31-6.67,10.13,10.13,0,0,1,3.8-4.49,10.27,10.27,0,0,1,5.69-1.58,10.1,10.1,0,0,1,7.17,2.44,10.29,10.29,0,0,1,3.06,6.77h-2.41q-.9-7.2-7.82-7.2a7.4,7.4,0,0,0-6.12,2.88q-2.28,2.86-2.28,7.94v3.46a12.54,12.54,0,0,0,2.22,7.8,7.16,7.16,0,0,0,6,2.91,8,8,0,0,0,5.64-1.79,8.61,8.61,0,0,0,2.35-5.39Z" transform="translate(-67.98 -37.74)"/><path class="cls-1" d="M469.85,219.67a12.29,12.29,0,0,1,1.18-5.46,8.81,8.81,0,0,1,8.17-5.12A8.62,8.62,0,0,1,486,212a11.3,11.3,0,0,1,2.6,7.79v.49a12.51,12.51,0,0,1-1.17,5.48,8.78,8.78,0,0,1-3.31,3.75,9,9,0,0,1-4.87,1.32,8.64,8.64,0,0,1-6.78-2.94,11.29,11.29,0,0,1-2.61-7.79Zm2.33.64a9.52,9.52,0,0,0,1.95,6.18,6.61,6.61,0,0,0,10.21,0,9.85,9.85,0,0,0,1.94-6.38v-.44a10.6,10.6,0,0,0-.89-4.41,7.15,7.15,0,0,0-2.5-3.09,6.39,6.39,0,0,0-3.69-1.1,6.19,6.19,0,0,0-5.06,2.44,9.81,9.81,0,0,0-2,6.37Z" transform="translate(-67.98 -37.74)"/><path class="cls-1" d="M495.5,209.48l.08,3.42a7.74,7.74,0,0,1,2.91-2.86,8,8,0,0,1,3.88-.95q5,0,6.3,4.08a7.94,7.94,0,0,1,3-3,8.37,8.37,0,0,1,4.15-1.06q6.75,0,6.89,7.38v14h-2.33V216.64a6.25,6.25,0,0,0-1.21-4.17,4.92,4.92,0,0,0-3.89-1.36,6.22,6.22,0,0,0-4.23,1.62,5.73,5.73,0,0,0-1.92,3.85v13.89h-2.33v-14a5.77,5.77,0,0,0-1.27-4,5,5,0,0,0-3.85-1.33,5.86,5.86,0,0,0-3.76,1.25,7.3,7.3,0,0,0-2.33,3.72v14.39h-2.33v-21Z" transform="translate(-67.98 -37.74)"/><path class="cls-1" d="M545.47,220.19A12.64,12.64,0,0,1,543.3,228a6.92,6.92,0,0,1-5.82,2.88,7.75,7.75,0,0,1-6.59-3v10.71h-2.31V209.48h2.15l.12,3a7.43,7.43,0,0,1,6.57-3.36,7,7,0,0,1,5.91,2.85c1.43,1.91,2.14,4.54,2.14,7.92Zm-2.32-.41a10.77,10.77,0,0,0-1.65-6.34,5.32,5.32,0,0,0-4.6-2.33,6.11,6.11,0,0,0-6,4v10.06a6.1,6.1,0,0,0,2.38,2.76,6.94,6.94,0,0,0,3.67,1,5.28,5.28,0,0,0,4.57-2.34Q543.15,224.22,543.15,219.78Z" transform="translate(-67.98 -37.74)"/><path class="cls-1" d="M563.86,230.47a10.91,10.91,0,0,1-.44-2.93,8.19,8.19,0,0,1-3.11,2.46,9.67,9.67,0,0,1-4,.86,7,7,0,0,1-4.9-1.69,5.49,5.49,0,0,1-1.87-4.27,5.62,5.62,0,0,1,2.55-4.85,12.25,12.25,0,0,1,7.11-1.78h4.21v-2.39a4.58,4.58,0,0,0-1.39-3.54,5.72,5.72,0,0,0-4-1.29,6.38,6.38,0,0,0-4,1.24,3.7,3.7,0,0,0-1.59,3l-2.33,0a5.39,5.39,0,0,1,2.33-4.33,8.92,8.92,0,0,1,5.72-1.84,8.18,8.18,0,0,1,5.54,1.76,6.31,6.31,0,0,1,2.09,4.9v9.93a12.27,12.27,0,0,0,.64,4.56v.23Zm-7.29-1.67a7.79,7.79,0,0,0,4.16-1.12,6.64,6.64,0,0,0,2.67-3v-4.62h-4.15a10.42,10.42,0,0,0-5.43,1.27,3.82,3.82,0,0,0-2,3.39,3.73,3.73,0,0,0,1.31,2.93A4.89,4.89,0,0,0,556.57,228.8Z" transform="translate(-67.98 -37.74)"/><path class="cls-1" d="M574.11,209.48l.08,3.59a8.36,8.36,0,0,1,2.95-3,7.61,7.61,0,0,1,3.89-1,6.33,6.33,0,0,1,5,1.9c1.1,1.27,1.65,3.17,1.67,5.71v13.77h-2.31V216.68a6.4,6.4,0,0,0-1.19-4.19,4.69,4.69,0,0,0-3.76-1.38,5.88,5.88,0,0,0-3.81,1.35,7.85,7.85,0,0,0-2.45,3.64v14.37H571.9v-21Z" transform="translate(-67.98 -37.74)"/><path class="cls-1" d="M600.38,227.13l6.13-17.65H609l-9,24.56-.47,1.09q-1.73,3.83-5.33,3.82a6.6,6.6,0,0,1-1.79-.27l0-1.92,1.21.11a4.32,4.32,0,0,0,2.76-.84,6.42,6.42,0,0,0,1.79-2.9l1-2.83-7.91-20.82h2.54Z" transform="translate(-67.98 -37.74)"/></svg>